<svg width="27" height="38" viewBox="0 0 27 38" fill="none" xmlns="http://www.w3.org/2000/svg">
<path d="M26.7019 31.8771C26.0832 28.8681 24.9619 25.9622 23.3765 23.2594C22.197 21.1679 20.7928 19.1868 19.1844 17.3448V17.3384C19.1987 17.3227 19.2107 17.3054 19.2199 17.2869C21.1099 14.661 21.4012 11.5074 21.3941 9.73752C21.394 9.27324 21.3679 8.80927 21.3159 8.34733L23.5541 9.36423C23.8925 9.51807 24.3047 9.40491 24.492 9.1068L26.7089 5.59276C26.8787 5.32906 26.8158 4.99303 26.5596 4.79472L22.2182 1.35796C21.6249 0.887277 20.916 0.551832 20.1506 0.379699L18.4739 0C18.4051 0.632978 18.3008 1.26238 18.1613 1.88574C16.6716 2.3869 15.0885 2.62078 13.5002 2.57441C11.9119 2.62086 10.3287 2.38697 8.8391 1.88574C8.69961 1.26238 8.5953 0.632978 8.52648 0L6.84965 0.379699C6.08419 0.551832 5.37532 0.887277 4.78203 1.35796L0.440679 4.79479C0.184401 4.9931 0.121539 5.32913 0.291371 5.59283L2.50829 9.10687C2.69551 9.40499 3.10769 9.51814 3.44615 9.36431L5.68432 8.3474C5.63232 8.80927 5.60625 9.27324 5.60617 9.73759C5.59908 11.5139 5.89037 14.6675 7.78034 17.287C7.78944 17.3076 7.80135 17.327 7.81584 17.3448C6.89738 18.3875 6.05256 19.4816 5.2863 20.6207C3.41122 23.2975 1.95718 26.1979 0.966355 29.2384C0.457179 30.8053 0.13329 32.417 0 34.046C0 34.046 3.16895 36.91 9.96869 37.2833C11.145 37.3514 12.3251 37.3428 13.5 37.2575C22.7369 37.9012 27 34.046 27 34.046C26.9441 33.3187 26.8445 32.5946 26.7019 31.8771Z" fill="#F0C419"/>
<path d="M9.09494 14.7447C9.54576 15.191 9.66182 15.8369 9.39057 16.3898C9.11933 16.9426 8.51227 17.2974 7.84437 17.2934C7.8228 17.2944 7.80115 17.2923 7.78038 17.287C5.89041 14.6676 5.59912 11.514 5.6062 9.73761C5.784 9.68016 5.97163 9.65187 6.16037 9.65391C6.60822 9.65406 7.03747 9.81569 7.35347 10.1031C7.66947 10.3905 7.84606 10.78 7.84437 11.1857C7.84381 11.3386 7.81749 11.4905 7.76614 11.6362C7.88993 11.7154 8.00632 11.8036 8.11434 11.9C8.37391 11.7652 8.66786 11.6942 8.96704 11.6941C9.87536 11.6916 10.6225 12.3413 10.6571 13.1634C10.6916 13.9855 10.0008 14.6848 9.09494 14.7447Z" fill="#3B97D3"/>
<path d="M10.6581 25.1001C10.6569 24.408 10.2475 23.7693 9.58455 23.4253C8.92164 23.0812 8.10628 23.0842 7.44651 23.4331C7.3096 23.3113 7.1623 23.1994 7.00599 23.0985C7.07175 22.9134 7.10532 22.7202 7.10548 22.5257C7.10918 21.5684 6.33278 20.7553 5.2865 20.6206C3.41134 23.2974 1.95738 26.1978 0.966553 29.2383C1.36731 29.91 2.1681 30.3038 3.00825 30.2425C3.84839 30.1812 4.56926 29.6762 4.84606 28.9551C4.93202 28.7518 4.97541 28.5357 4.97388 28.318C4.97243 28.5357 5.01573 28.7518 5.10169 28.9551C5.38558 29.6933 6.13381 30.203 6.99553 30.245C7.85725 30.2872 8.66174 29.8535 9.03167 29.1472C9.4016 28.441 9.2638 27.6022 8.68275 27.0243C9.79801 26.9542 10.6619 26.1126 10.6581 25.1001ZM5.47839 26.2006C5.27515 26.3862 4.968 26.4421 4.70142 26.3418C4.43484 26.2416 4.26171 26.0051 4.2634 25.7437C4.26444 25.6596 4.28376 25.5765 4.3203 25.4992C4.42422 25.2541 4.68411 25.0924 4.97396 25.0924C5.2638 25.0924 5.52362 25.2541 5.62761 25.4992C5.66415 25.5765 5.68347 25.6596 5.68452 25.7437C5.6817 25.914 5.60813 26.0772 5.47839 26.2006Z" fill="#3B97D3"/>
<path d="M13.5002 30.2488V37.2575C12.3253 37.3427 11.1451 37.3513 9.96887 37.2832L13.5002 30.2488Z" fill="#F29C1F"/>
<path d="M23.3766 23.2594C22.7293 23.0735 22.0228 23.1787 21.4752 23.5425C20.9275 23.9062 20.6044 24.4849 20.6056 25.1001C20.6057 25.2945 20.6393 25.4878 20.705 25.6729C20.5487 25.7738 20.4014 25.8857 20.2645 26.0075C19.5065 25.6044 18.5529 25.6639 17.8631 26.1576C17.1733 26.6512 16.8888 27.4778 17.1465 28.2391C17.4043 29.0004 18.1514 29.5403 19.0281 29.5988C18.4466 30.1768 18.3085 31.0158 18.6784 31.7223C19.0484 32.4289 19.8531 32.8627 20.7152 32.8205C21.5772 32.7782 22.3255 32.2682 22.6092 31.5296C22.6951 31.3263 22.7385 31.1102 22.7371 30.8925C22.7356 31.1103 22.7789 31.3263 22.8649 31.5296C23.1363 32.238 23.8371 32.7391 24.6608 32.8137C25.4844 32.8883 26.2809 32.5228 26.7018 31.8772C26.0833 28.8682 24.962 25.9623 23.3766 23.2594ZM23.2417 28.775C23.0383 28.9606 22.7313 29.0165 22.4647 28.9162C22.1981 28.816 22.025 28.5795 22.0267 28.3181C22.0277 28.234 22.047 28.1508 22.0836 28.0736C22.1875 27.8285 22.4474 27.6668 22.7372 27.6668C23.0271 27.6668 23.2869 27.8285 23.3909 28.0736C23.4274 28.1509 23.4468 28.234 23.4478 28.3181C23.445 28.4885 23.3714 28.6516 23.2417 28.775Z" fill="#3B97D3"/>
<path d="M21.3943 9.73754C21.4013 11.5074 21.1101 14.661 19.2201 17.2869C19.1993 17.2922 19.1777 17.2944 19.1561 17.2933C18.4882 17.2973 17.8811 16.9426 17.6099 16.3897C17.3386 15.8369 17.4547 15.191 17.9055 14.7446C17.0011 14.6847 16.3109 13.9876 16.3434 13.1666C16.3759 12.3457 17.1195 11.6951 18.0263 11.6941C18.3279 11.6934 18.6244 11.7644 18.8861 11.9C18.9956 11.8052 19.1119 11.717 19.2343 11.6362C19.183 11.4905 19.1567 11.3386 19.1561 11.1857C19.1543 10.78 19.331 10.3905 19.647 10.1031C19.963 9.8157 20.3923 9.65406 20.8402 9.65392C21.0288 9.6518 21.2165 9.68017 21.3943 9.73754Z" fill="#3B97D3"/>
<path d="M18.1613 1.88574C17.6639 4.26061 16.4063 8.13503 13.5002 9.01028C10.594 8.13496 9.33646 4.26054 8.83911 1.88574C10.3288 2.3869 11.9119 2.62079 13.5002 2.57442C15.0886 2.62079 16.6716 2.3869 18.1613 1.88574Z" fill="#F29C1F"/>
<path d="M5.68443 25.7437C5.68443 26.0991 5.36633 26.3873 4.97387 26.3873C4.5814 26.3873 4.26331 26.0992 4.26331 25.7437C4.26435 25.6595 4.28367 25.5764 4.32021 25.4992C4.42412 25.2541 4.68402 25.0924 4.97387 25.0924C5.26371 25.0924 5.52353 25.2541 5.62752 25.4992C5.66406 25.5765 5.68338 25.6596 5.68443 25.7437Z" fill="#285680"/>
<path d="M23.4476 28.318C23.4476 28.6734 23.1295 28.9616 22.737 28.9616C22.3446 28.9616 22.0265 28.6735 22.0265 28.318C22.0275 28.2339 22.0469 28.1508 22.0834 28.0735C22.1873 27.8285 22.4472 27.6667 22.737 27.6667C23.0269 27.6667 23.2867 27.8285 23.3907 28.0735C23.4272 28.1508 23.4466 28.2339 23.4476 28.318Z" fill="#285680"/>
</svg>
