<svg width="25" height="25" viewBox="0 0 25 25" fill="none" xmlns="http://www.w3.org/2000/svg">
<path fill-rule="evenodd" clip-rule="evenodd" d="M16.5996 2.75095C17.2306 2.75095 17.8606 2.83995 18.4596 3.04095C22.1506 4.24095 23.4806 8.29095 22.3696 11.831C21.7396 13.64 20.7096 15.291 19.3606 16.64C17.4296 18.51 15.3106 20.17 13.0296 21.6L12.7796 21.751L12.5196 21.59C10.2306 20.17 8.09956 18.51 6.15056 16.63C4.81056 15.281 3.77956 13.64 3.13956 11.831C2.00956 8.29095 3.33956 4.24095 7.07056 3.01995C7.36056 2.91995 7.65956 2.84995 7.95956 2.81095H8.07956C8.36056 2.76995 8.63956 2.75095 8.91956 2.75095H9.02956C9.65956 2.76995 10.2696 2.87995 10.8606 3.08095H10.9196C10.9596 3.09995 10.9896 3.12095 11.0096 3.13995C11.2306 3.21095 11.4396 3.29095 11.6396 3.40095L12.0196 3.57095C12.1114 3.61992 12.2144 3.69475 12.3035 3.75942C12.36 3.8004 12.4108 3.83729 12.4496 3.86095C12.4659 3.87058 12.4825 3.88026 12.4992 3.89002C12.5849 3.94007 12.6742 3.99221 12.7496 4.04995C13.8606 3.20095 15.2096 2.74095 16.5996 2.75095ZM19.2596 9.95095C19.6696 9.93995 20.0196 9.61095 20.0496 9.18995V9.07095C20.0796 7.66995 19.2306 6.40095 17.9396 5.91095C17.5296 5.76995 17.0796 5.99095 16.9296 6.41095C16.7896 6.83095 17.0096 7.29095 17.4296 7.43995C18.0706 7.67995 18.4996 8.31095 18.4996 9.00995V9.04095C18.4806 9.26995 18.5496 9.49095 18.6896 9.66095C18.8296 9.83095 19.0396 9.92995 19.2596 9.95095Z" fill="#F96C6C"/>
</svg>
