<svg width="26" height="26" viewBox="0 0 26 26" fill="none" xmlns="http://www.w3.org/2000/svg">
<g opacity="0.3">
<path fill-rule="evenodd" clip-rule="evenodd" d="M19.9025 9.68574C19.9025 10.985 20.2441 11.7509 20.9959 12.6334C21.5656 13.2835 21.7476 14.1181 21.7476 15.0236C21.7476 15.928 21.452 16.7865 20.8599 17.4836C20.0846 18.3192 18.9913 18.8527 17.8754 18.9454C16.2584 19.084 14.6404 19.2007 13.0009 19.2007C11.3604 19.2007 9.74343 19.1309 8.12644 18.9454C7.00958 18.8527 5.91625 18.3192 5.14202 17.4836C4.54984 16.7865 4.25323 15.928 4.25323 15.0236C4.25323 14.1181 4.43631 13.2835 5.00497 12.6334C5.78022 11.7509 6.09932 10.985 6.09932 9.68574V9.245C6.09932 7.50497 6.53093 6.36717 7.41971 5.25334C8.74112 3.62896 10.8593 2.65475 12.9549 2.65475H13.047C15.1876 2.65475 17.3743 3.67585 18.6732 5.37004C19.5159 6.46095 19.9025 7.55081 19.9025 9.245V9.68574ZM9.98949 21.339C9.98949 20.8181 10.4651 20.5795 10.9049 20.4774C11.4193 20.368 14.5541 20.368 15.0685 20.4774C15.5083 20.5795 15.9839 20.8181 15.9839 21.339C15.9583 21.835 15.6689 22.2747 15.269 22.5539C14.7505 22.9603 14.1419 23.2177 13.5058 23.3104C13.1539 23.3562 12.8082 23.3573 12.4687 23.3104C11.8315 23.2177 11.2229 22.9603 10.7054 22.5529C10.3045 22.2747 10.0151 21.835 9.98949 21.339Z" fill="#1C1A19"/>
</g>
</svg>
