<svg width="25" height="38" viewBox="0 0 25 38" fill="none" xmlns="http://www.w3.org/2000/svg">
<path d="M23.3234 4.7431V12.288L23.0758 12.9118L23.3234 13.4206V36.3166C23.3234 36.8762 22.8524 37.3299 22.2714 37.3299H16.0493C15.5081 37.3299 15.0558 36.934 15.0028 36.415L12.8279 14.9612L13.0747 14.3013L12.7148 13.8398L12.6353 13.0586C12.6275 12.9797 12.5635 12.9407 12.4996 12.9407C12.4356 12.9407 12.3725 12.9797 12.3647 13.0586L12.2851 13.8398L11.9732 14.3498L12.1713 14.9612L9.99638 36.415C9.94336 36.934 9.49106 37.3299 8.94987 37.3299H2.72775C2.14679 37.3299 1.67578 36.8762 1.67578 36.3166V13.4206L1.9201 12.8961L1.67578 12.288V4.7431C1.67578 3.98899 2.31055 3.37758 3.09348 3.37758L12.2851 2.43066L21.9057 3.37758C22.6886 3.37758 23.3234 3.98899 23.3234 4.7431Z" fill="#8795DE"/>
<path d="M21.9058 3.37805L21.0514 2.98169L20.3726 3.37805C21.1553 3.37805 21.7898 3.98922 21.7898 4.74311V36.3171C21.7898 36.8765 21.319 37.33 20.7382 37.33H22.2715C22.8523 37.33 23.3231 36.8764 23.3231 36.3171V4.74311C23.3231 3.98915 22.6885 3.37805 21.9058 3.37805Z" fill="#6C7FD8"/>
<path d="M21.8417 1.02151V3.37848H3.15735V1.02151C3.15735 0.457424 3.63225 0 4.21789 0H8.26746L12.4995 0.603139L16.7315 0H20.7811C21.3668 0 21.8417 0.457424 21.8417 1.02151Z" fill="#4F66D0"/>
<path d="M20.7812 0H19.2479C19.8336 0 20.3085 0.457424 20.3085 1.02151V3.37848H21.8417V1.02151C21.8417 0.457424 21.3668 0 20.7812 0V0Z" fill="#314DC9"/>
<path d="M12.4994 9.97543V12.9408C12.4355 12.9408 12.3723 12.9799 12.3645 13.0587L9.99625 36.4151C9.94322 36.9342 9.49093 37.33 8.94974 37.33H7.41663C7.95782 37.33 8.41011 36.9342 8.46314 36.4151L10.854 12.8281C10.9281 12.0996 11.1558 11.3928 11.5231 10.7513L12.0339 9.85976C12.1579 9.64344 12.4994 9.72832 12.4994 9.97543Z" fill="#6C7FD8"/>
<path d="M4.08653 25.0918H2.63101C1.17791 25.0918 0 23.9573 0 22.5577V17.5751C0 17.0067 0.478415 16.5459 1.0685 16.5459H4.08653C4.52299 16.5459 4.87679 16.8867 4.87679 17.3071V24.3307C4.87671 24.7511 4.52291 25.0918 4.08653 25.0918Z" fill="#4F66D0"/>
<path d="M4.08649 16.545H2.55322C2.98968 16.545 3.34349 16.8858 3.34349 17.3062V24.3298C3.34349 24.7417 3.00349 25.0764 2.57919 25.0897C2.5965 25.09 2.61366 25.0909 2.63097 25.0909H4.08649C4.52295 25.0909 4.87676 24.7502 4.87676 24.3298V17.3062C4.87676 16.8858 4.52288 16.545 4.08649 16.545Z" fill="#314DC9"/>
<path d="M4.87671 18.2205L2.32595 19.555C1.89939 19.7781 1.42168 19.895 0.936321 19.895H0V17.5751C0 17.0067 0.478415 16.5459 1.0685 16.5459H4.08653C4.52299 16.5459 4.87679 16.8867 4.87679 17.3071V18.2205H4.87671Z" fill="#6C7FD8"/>
<path d="M4.87682 17.3062V18.2196L3.34371 19.0218V17.3062C3.34371 16.8856 2.98967 16.5446 2.55298 16.5446H4.08609C4.52279 16.5446 4.87682 16.8856 4.87682 17.3062Z" fill="#4F66D0"/>
<path d="M20.9133 25.0918H22.3688C23.8219 25.0918 24.9998 23.9572 24.9998 22.5576V17.575C24.9998 17.0066 24.5214 16.5458 23.9313 16.5458H20.9133C20.4768 16.5458 20.123 16.8866 20.123 17.307V24.3306C20.1231 24.751 20.4769 25.0918 20.9133 25.0918Z" fill="#4F66D0"/>
<path d="M23.9307 16.5449H22.3974C22.9876 16.5449 23.4659 17.0057 23.4659 17.5741V22.5566C23.4659 23.9395 22.3158 25.0629 20.8867 25.0895C20.8954 25.0898 20.9039 25.0908 20.9127 25.0908H22.3682C23.8213 25.0908 24.9992 23.9562 24.9992 22.5566V17.5741C24.9992 17.0057 24.5209 16.5449 23.9307 16.5449Z" fill="#314DC9"/>
<path d="M24.9991 17.5743V19.8937H24.0626C23.8614 19.8937 23.661 19.8735 23.466 19.8336C23.19 19.7788 22.9225 19.6849 22.673 19.5542L20.1222 18.2195V17.3062C20.1222 16.8856 20.4762 16.5446 20.9129 16.5446H23.9308C24.5211 16.5446 24.9991 17.0057 24.9991 17.5743Z" fill="#6C7FD8"/>
<path d="M24.999 17.5743V19.8937H24.0625C23.8613 19.8937 23.6609 19.8735 23.4659 19.8336V17.5743C23.4659 17.0057 22.9871 16.5446 22.3976 16.5446H23.9307C24.521 16.5446 24.999 17.0057 24.999 17.5743Z" fill="#4F66D0"/>
<path d="M8.26746 0H16.7315V3.37848H8.26746V0Z" fill="#6C7FD8"/>
<path d="M15.1982 0H16.7315V3.37848H15.1982V0Z" fill="#314DC9"/>
<path d="M12.2851 13.8397L12.2555 14.1357L12.2118 14.5638L12.1713 14.9612C12.1611 14.9604 12.1502 14.9589 12.1401 14.9574L1.67578 13.4206V12.288C1.70463 12.288 1.73427 12.2902 1.7639 12.2947L12.2851 13.8397Z" fill="#4F66D0"/>
<path d="M23.3233 12.288V13.4206L12.859 14.9574C12.8488 14.9589 12.8379 14.9604 12.8278 14.9612L12.7147 13.8397L23.2352 12.2947C23.2648 12.2902 23.2944 12.288 23.3233 12.288Z" fill="#4F66D0"/>
<path d="M23.3232 13.4207V12.288C23.2944 12.288 23.2649 12.2902 23.2353 12.2947L21.7899 12.507V13.6458L23.3232 13.4207Z" fill="#314DC9"/>
<path d="M4.9821 32.9157V37.33H3.81238V32.9157C3.81238 32.6048 4.07362 32.3524 4.39724 32.3524C4.72008 32.3524 4.9821 32.6048 4.9821 32.9157Z" fill="#4F66D0"/>
<path d="M21.3614 32.9157V37.33H20.1917V32.9157C20.1917 32.6048 20.4529 32.3524 20.7765 32.3524C21.0993 32.3524 21.3614 32.6048 21.3614 32.9157Z" fill="#4F66D0"/>
</svg>
