<svg width="39" height="38" viewBox="0 0 39 38" fill="none" xmlns="http://www.w3.org/2000/svg">
<path d="M9.98562 4.07273L6.75215 28.4949L6.67574 29.075L6.59933 29.6543L6.27029 32.1362C6.18374 32.7389 5.62391 33.1568 5.02119 33.0702L0.945631 32.4816C0.342134 32.3942 -0.0757923 31.8352 0.0115356 31.2317L0.326539 28.7787L0.401392 28.1986L0.476244 27.6185L2.83332 9.29134C3.03604 7.71554 3.87579 6.29101 5.15686 5.3499L8.5642 3.16046L9.98562 4.07273Z" fill="#FFF3DE"/>
<path d="M8.6555 14.1208L6.67581 29.075L6.27036 32.1361C6.18381 32.7388 5.62397 33.1567 5.02126 33.0702L4.12537 32.9408C4.41542 32.7786 4.62984 32.4901 4.68052 32.1361L5.08597 29.075L7.50168 10.829C7.57396 10.2833 8.3557 10.2617 8.458 10.8025L8.56427 11.3646L8.6555 14.1208Z" fill="#FFE5C2"/>
<path d="M37.8057 32.4816L33.7302 33.0702C33.1275 33.1568 32.5676 32.7389 32.4811 32.1362L32.152 29.6543L32.0756 29.075L31.9992 28.4949L28.7657 4.07273L30.1872 3.16046L33.5945 5.3499C34.8756 6.29101 35.7153 7.71554 35.918 9.29134L38.2751 27.6185L38.35 28.1986L38.4248 28.7787L38.7398 31.2317C38.8272 31.8352 38.4092 32.3942 37.8057 32.4816Z" fill="#FFF3DE"/>
<path d="M38.7399 31.2314L38.3501 28.1982L35.9181 9.29142C35.7154 7.71562 34.8756 6.29101 33.5945 5.3499L30.1872 3.16046L29.392 3.67086L32.0051 5.34997C33.2862 6.29109 34.1259 7.7157 34.3286 9.2915L36.7606 28.1983L37.1505 31.2314C37.2378 31.8349 36.8199 32.394 36.2164 32.4813L33.0365 32.9407C33.2405 33.0544 33.4814 33.1058 33.7303 33.07L37.8059 32.4813C38.4093 32.3939 38.8273 31.8349 38.7399 31.2314Z" fill="#FFE5C2"/>
<path d="M29.6664 27.1084C29.6618 27.1802 29.6649 27.2527 29.6742 27.3236L30.3417 34.5173C30.4103 35.0646 30.0345 35.5683 29.4902 35.658L19.9606 37.2283L19.3758 36.7847L18.791 37.2291L17.7711 37.0607L9.26135 35.658C8.71711 35.5683 8.34051 35.0646 8.40913 34.5173L9.07734 27.3236C9.0867 27.2527 9.08904 27.1802 9.08514 27.1084L8.65552 14.1208L8.56429 11.3645L7.89764 7.83862L7.87347 7.71231C7.57951 6.1599 7.77756 4.86636 8.43876 3.43169L8.56429 3.16035L13.1701 1.32568H25.5807L30.1873 3.16035L30.3128 3.43169C30.974 4.86636 31.1713 6.1599 30.8781 7.71231L30.1873 11.3645L29.6664 27.1084Z" fill="#FFF3DE"/>
<path d="M19.375 3.00604V37.3251L17.7711 37.0608V3.00604H19.375Z" fill="#FFE5C2"/>
<path d="M19.9605 2.31676V37.2284L19.3757 37.3251H19.3749L18.7909 37.2292V2.31676C18.7909 1.90897 19.0529 1.57837 19.3757 1.57837C19.6985 1.57837 19.9605 1.90897 19.9605 2.31676Z" fill="#E9B665"/>
<path d="M30.1872 11.3646L30.878 7.71238C31.1712 6.15998 30.9739 4.86643 30.3127 3.43176L30.1872 3.16042L25.5806 1.32576L22.6668 0.000244141H21.0774L23.9912 1.32576L28.5977 3.16042L28.7233 3.43176C29.3845 4.86643 29.5817 6.15998 29.2885 7.71238L28.5977 11.3646L28.0769 27.1085C28.0722 27.1803 28.0753 27.2528 28.0847 27.3237L28.7521 34.5173C28.8207 35.0647 28.4468 35.83 27.9026 35.9197L29.4902 35.6581C30.0344 35.5684 30.4102 35.0647 30.3416 34.5173L29.6742 27.3237C29.6648 27.2528 29.6617 27.1803 29.6664 27.1085L30.1872 11.3646Z" fill="#FFE5C2"/>
<path d="M19.3756 4.57555L16.7323 6.68608C16.4018 6.94993 15.9121 6.84155 15.7238 6.46285L13.1704 1.32563L16.0839 0.00012207L19.3756 4.57555Z" fill="#FFE5C2"/>
<path d="M16.0838 0L14.8862 0.544863L17.3796 4.01069C17.6072 4.32709 17.5468 4.76638 17.2422 5.00958L15.638 6.29041L15.7236 6.46273C15.9119 6.84143 16.4016 6.94981 16.7321 6.68596L19.3754 4.57543L16.0838 0Z" fill="#FED2A4"/>
<path d="M19.3755 4.57555L22.0188 6.68608C22.3493 6.94993 22.839 6.84155 23.0273 6.46285L25.5807 1.32563L22.6672 0.00012207L19.3755 4.57555Z" fill="#FFE5C2"/>
<path d="M22.6672 0L22.2753 0.544863L23.3993 1.05628C23.7229 1.20349 23.86 1.5896 23.7018 1.90796L21.5236 6.29049L22.019 6.68604C22.3495 6.94997 22.8392 6.84151 23.0275 6.46281L25.5809 1.32559L22.6672 0Z" fill="#FED2A4"/>
<path d="M22.6669 0.000244141L19.3757 4.5756L16.0837 0.000244141H22.6669Z" fill="#E9B665"/>
<path d="M21.0773 0.000244141L18.5808 3.4709L19.3757 4.5756L22.6668 0.000244141H21.0773Z" fill="#D8AA5E"/>
<path d="M26.7656 17.3337L25.5994 17.9967C25.1746 18.2382 24.654 18.2382 24.2293 17.9967L23.0631 17.3337C22.6297 17.0873 22.3621 16.6272 22.3621 16.1287V13.2166C22.3621 12.4511 22.9826 11.8305 23.7482 11.8305H26.0807C26.8462 11.8305 27.4668 12.4511 27.4668 13.2166V16.1287C27.4667 16.6272 27.1989 17.0873 26.7656 17.3337Z" fill="#FFE5C2"/>
<path d="M26.0806 11.8305H24.491C25.2566 11.8305 25.8771 12.4511 25.8771 13.2166V16.1287C25.8771 16.6272 25.6095 17.0873 25.1761 17.3337L24.1195 17.9344L24.2292 17.9968C24.654 18.2383 25.1745 18.2383 25.5992 17.9968L26.7655 17.3337C27.1989 17.0873 27.4666 16.6272 27.4666 16.1287V13.2166C27.4666 12.4511 26.846 11.8305 26.0806 11.8305Z" fill="#FED2A4"/>
<path d="M0.482481 27.6192C0.480142 27.6192 0.478582 27.6185 0.476243 27.6185L0.40139 28.1986L0.326538 28.7787L6.59933 29.6543L6.67574 29.075L6.75215 28.4949L0.482481 27.6192Z" fill="#FFE5C2"/>
<path d="M38.35 28.1986L38.2752 27.6185C38.2728 27.6185 38.2713 27.6192 38.2689 27.6192L31.9993 28.4949L32.0757 29.075L32.1521 29.6543L38.4249 28.7787L38.35 28.1986Z" fill="#FFE5C2"/>
</svg>
