<svg width="39" height="38" viewBox="0 0 39 38" fill="none" xmlns="http://www.w3.org/2000/svg">
<path d="M38.063 16.3591L32.6661 18.1518C32.1843 18.3111 31.6728 18.0364 31.4904 17.5189L29.4718 11.8076L30.3996 36.1891C30.423 36.8108 29.9731 37.33 29.4086 37.33H9.34136C8.77687 37.33 8.32622 36.8108 8.35039 36.1891L9.2782 11.8076L7.25962 17.5189C7.07718 18.0364 6.56571 18.3111 6.08387 18.1518L0.686959 16.3591C0.13261 16.1748 -0.151192 15.4963 0.0819309 14.9117L3.64115 5.96364C4.16665 4.64192 5.14124 3.60178 6.35442 3.0662L7.95042 2.36272L13.9017 0.210957L14.4864 0H24.2636L24.8475 0.210957L30.7996 2.36272L32.3956 3.0662C33.6088 3.60178 34.5834 4.64192 35.1089 5.96364L38.6681 14.9117C38.9012 15.4963 38.6174 16.1748 38.063 16.3591Z" fill="#8D9CA8"/>
<path d="M29.4718 11.8076L30.3996 36.1891C30.423 36.8108 29.9731 37.33 29.4086 37.33H27.776C28.3405 37.33 28.7911 36.8108 28.767 36.1891L27.8583 12.3091C27.8459 11.983 27.9262 11.6607 28.0881 11.3876L28.7405 10.2873C29.0279 9.80236 29.7111 10.0918 29.6312 10.6646L29.4718 11.8076Z" fill="#7A8C98"/>
<path d="M30.7995 2.36272L30.7044 3.04209L30.7036 3.04037L29.1669 2.36272L22.6309 0H24.2635L30.7995 2.36272Z" fill="#7A8C98"/>
<path d="M22.1978 0V2.99043C22.1978 3.98753 21.4639 4.79803 20.5617 4.79803H18.1881C17.286 4.79803 16.552 3.98753 16.552 2.99043V0H22.1978Z" fill="#7A8C98"/>
<path d="M20.5653 0V2.99043C20.5653 3.98753 19.8314 4.79803 18.9292 4.79803H20.5618C21.4638 4.79803 22.1978 3.98753 22.1978 2.99043V0H20.5653Z" fill="#6A7B84"/>
<path d="M9.27826 11.8075L7.25968 17.5189C7.07724 18.0364 6.56577 18.311 6.08393 18.1517L5.37988 17.9175C5.48592 17.8108 5.57168 17.6764 5.62704 17.5189L7.64562 11.8075L8.17198 10.4368C8.36378 9.93731 9.0283 10.0285 9.10361 10.5646L9.27826 11.8075Z" fill="#7A8C98"/>
<path d="M38.6682 14.9114L35.109 5.96331C34.5835 4.64219 33.6091 3.60187 32.3958 3.06656L30.7995 2.3623L30.7041 3.04055L30.7631 3.06664C31.9765 3.60196 32.9509 4.64228 33.4763 5.96339L37.0355 14.9115C37.2683 15.4969 36.9849 16.1752 36.4305 16.3592L31.738 17.9175C31.9812 18.1628 32.3307 18.2628 32.6658 18.1516L38.0631 16.3592C38.6175 16.175 38.901 15.4968 38.6682 14.9114Z" fill="#7A8C98"/>
<path d="M24.2635 0H23.678V2.99043C23.678 4.88905 22.28 6.43291 20.5616 6.43291H18.1883C16.4699 6.43291 15.0711 4.88905 15.0711 2.99043V0H14.4864L13.9016 0.210957V2.99043C13.9016 5.60114 15.8251 7.72449 18.1883 7.72449H20.5616C22.9248 7.72449 24.8475 5.60114 24.8475 2.99043V0.210957L24.2635 0Z" fill="#7A8C98"/>
</svg>
